# xmcd CD database file
#
# Track frame offsets:
#	150
#	19696
#	34770
#	54520
#	73764
#	89299
#	103257
#	113847
#	134397
#	153999
#	171097
#
# Disc length: 2682 seconds
#
# Revision: 0
# Processed by: cddbd v1.5.2PL0 Copyright (c) Steve Scherf et al.
# Submitted via: CDex 1.51
#
DISCID=8f0a780b
DTITLE=The Billy Boys - Under The Big Sky
DYEAR=2005
DGENRE=Country
TTITLE0=Good Working Man
TTITLE1=Have Another Shot Of Whiskey
TTITLE2=Drink My Troubles Down
TTITLE3=Elmira
TTITLE4=Boys Forever
TTITLE5=Hit The Road Again
TTITLE6=Billy Jig
TTITLE7=The Courtin' Song
TTITLE8=For The First Time
TTITLE9=Why Can't I Have You
TTITLE10=Under The Big Sky
EXTD=YEAR: 2005
EXTT0=
EXTT1=
EXTT2=
EXTT3=
EXTT4=
EXTT5=
EXTT6=
EXTT7=
EXTT8=
EXTT9=
EXTT10=
PLAYORDER=
